<svg width="31" height="33" viewBox="0 0 31 33" fill="none" xmlns="http://www.w3.org/2000/svg">
<g filter="url(#filter0_d_1_373)">
<path d="M19.075 11.875C19.075 12.6375 18.5125 13.2625 17.8 13.2625C17.1 13.2625 16.525 12.6375 16.525 11.875C16.525 11.1125 17.0875 10.4875 17.8 10.4875C18.5125 10.4875 19.075 11.1125 19.075 11.875ZM13.2375 10.4875C12.525 10.4875 11.9625 11.1125 11.9625 11.875C11.9625 12.6375 12.5375 13.2625 13.2375 13.2625C13.95 13.2625 14.5125 12.6375 14.5125 11.875C14.525 11.1125 13.95 10.4875 13.2375 10.4875ZM26.4375 2.575V25C23.2884 22.2171 24.2955 23.1383 20.6375 19.7375L21.3 22.05H7.125C5.7125 22.05 4.5625 20.9 4.5625 19.475V2.575C4.5625 1.15 5.7125 0 7.125 0H23.875C25.2875 0 26.4375 1.15 26.4375 2.575ZM22.875 14.425C22.875 10.4 21.075 7.1375 21.075 7.1375C19.275 5.7875 17.5625 5.825 17.5625 5.825L17.3875 6.025C19.5125 6.675 20.5 7.6125 20.5 7.6125C17.5307 5.98511 14.0428 5.98481 11.1625 7.25C10.7 7.4625 10.425 7.6125 10.425 7.6125C10.425 7.6125 11.4625 6.625 13.7125 5.975L13.5875 5.825C13.5875 5.825 11.875 5.7875 10.075 7.1375C10.075 7.1375 8.275 10.4 8.275 14.425C8.275 14.425 9.325 16.2375 12.0875 16.325C12.0875 16.325 12.55 15.7625 12.925 15.2875C11.3375 14.8125 10.7375 13.8125 10.7375 13.8125C10.9214 13.9412 11.2246 14.1081 11.25 14.125C13.3599 15.3065 16.3568 15.6937 19.05 14.5625C19.4875 14.4 19.975 14.1625 20.4875 13.825C20.4875 13.825 19.8625 14.85 18.225 15.3125C18.6 15.7875 19.05 16.325 19.05 16.325C21.8125 16.2375 22.875 14.425 22.875 14.425Z" fill="white" fill-opacity="0.5"/>
</g>
<defs>
<filter id="filter0_d_1_373" x="-1" y="0" width="33" height="33" filterUnits="userSpaceOnUse" color-interpolation-filters="sRGB">
<feFlood flood-opacity="0" result="BackgroundImageFix"/>
<feColorMatrix in="SourceAlpha" type="matrix" values="0 0 0 0 0 0 0 0 0 0 0 0 0 0 0 0 0 0 127 0" result="hardAlpha"/>
<feOffset dy="4"/>
<feGaussianBlur stdDeviation="2"/>
<feComposite in2="hardAlpha" operator="out"/>
<feColorMatrix type="matrix" values="0 0 0 0 0 0 0 0 0 0 0 0 0 0 0 0 0 0 0.25 0"/>
<feBlend mode="normal" in2="BackgroundImageFix" result="effect1_dropShadow_1_373"/>
<feBlend mode="normal" in="SourceGraphic" in2="effect1_dropShadow_1_373" result="shape"/>
</filter>
</defs>
</svg>
