<svg width="18" height="19" viewBox="0 0 18 19" fill="none" xmlns="http://www.w3.org/2000/svg">
<path d="M15.7422 0.75H1.71875C0.78125 0.75 0 1.57031 0 2.50781V16.5312C0 17.4688 0.78125 18.25 1.71875 18.25H15.7422C16.6797 18.25 17.5 17.4688 17.5 16.5312V2.50781C17.5 1.57031 16.6797 0.75 15.7422 0.75ZM14.7266 6.57031C14.6484 7.82031 13.7891 9.5 12.1484 11.6484C10.4297 13.875 8.94531 14.9688 7.77344 14.9688C7.03125 14.9688 6.40625 14.3047 5.89844 12.9375C4.88281 9.30469 4.49219 7.15625 3.67188 7.15625C3.55469 7.15625 3.24219 7.35156 2.65625 7.74219L2.07031 7C3.51562 5.71094 4.92188 4.30469 5.78125 4.22656C6.75781 4.10938 7.38281 4.77344 7.61719 6.21875C8.39844 11.3359 8.78906 12.1172 10.2344 9.8125C10.7812 8.95312 11.0547 8.32812 11.0938 7.89844C11.25 6.60938 10.0781 6.6875 9.29688 7.03906C9.92188 4.96875 11.1328 3.99219 12.8516 4.07031C14.1797 4.07031 14.7656 4.92969 14.7266 6.57031Z" fill="#D7D7D7"/>
</svg>
