<svg width="18" height="19" viewBox="0 0 18 19" fill="none" xmlns="http://www.w3.org/2000/svg">
<path d="M3.51562 8.44531C3.75 8.44531 5.9375 8.44531 8.4375 7.78125C7.53906 6.21875 6.60156 4.89062 6.44531 4.69531C4.96094 5.39844 3.86719 6.76562 3.51562 8.44531ZM12.2656 5.51562C10.9766 4.38281 9.17969 3.91406 7.5 4.34375C7.61719 4.53906 8.59375 5.86719 9.49219 7.46875C11.3672 6.76562 12.1875 5.67188 12.2656 5.51562ZM5.46875 13.7188C7.03125 14.9688 9.10156 15.1641 10.8203 14.4219C10.7422 13.9531 10.4297 12.3516 9.6875 10.3984C7.53906 11.1406 6.01562 12.5859 5.46875 13.7188ZM9.29688 9.5C9.17969 9.1875 9.02344 8.91406 8.86719 8.60156C6.21094 9.38281 3.63281 9.38281 3.39844 9.34375C3.39844 9.42188 3.39844 9.46094 3.39844 9.53906C3.39844 10.9062 3.90625 12.1562 4.76562 13.0938C5.625 11.6094 7.38281 10.0469 9.29688 9.5ZM10.6641 10.1641C11.3672 12.0781 11.6406 13.6406 11.7188 13.9531C12.9297 13.1328 13.75 11.8438 13.9844 10.3594C13.8281 10.3203 12.3438 9.89062 10.6641 10.1641ZM9.88281 8.25C10.0781 8.64062 10.1953 8.95312 10.3516 9.30469C12.1484 9.07031 13.9062 9.42188 14.0625 9.46094C14.0625 8.21094 13.5938 7.03906 12.8516 6.14062C12.7344 6.29688 11.875 7.42969 9.88281 8.25ZM17.5 2.625C17.5 1.60938 16.6406 0.75 15.625 0.75H1.875C0.820312 0.75 0 1.60938 0 2.625V16.375C0 17.4297 0.820312 18.25 1.875 18.25H15.625C16.6406 18.25 17.5 17.4297 17.5 16.375V2.625ZM15 9.5C15 12.9766 12.1875 15.75 8.75 15.75C5.27344 15.75 2.5 12.9766 2.5 9.5C2.5 6.0625 5.27344 3.25 8.75 3.25C12.1875 3.25 15 6.0625 15 9.5Z" fill="#FF733B"/>
</svg>
