<svg width="18" height="19" viewBox="0 0 18 19" fill="none" xmlns="http://www.w3.org/2000/svg">
<path d="M15.8984 0.75H1.5625C0.703125 0.75 0 1.49219 0 2.35156V16.6875C0 17.5469 0.703125 18.25 1.5625 18.25H15.8984C16.7578 18.25 17.5 17.5469 17.5 16.6875V2.35156C17.5 1.49219 16.7578 0.75 15.8984 0.75ZM6.875 5.20312C6.875 6.10156 5.97656 6.25781 5.82031 6.25781C5.23438 6.25781 4.76562 5.78906 4.76562 5.20312C4.76562 3.83594 6.83594 3.83594 6.875 5.20312ZM12.9688 14.2266C10.4297 14.2266 11.6406 11.3359 11.9922 10.0859C12.5391 8.25 10.2344 7.78125 9.64844 10.125L8.67188 14.1484H6.91406L7.22656 12.8594C5.97656 14.8906 3.51562 14.6172 3.51562 12.7031C3.51562 12.1562 3.55469 12.1562 4.41406 8.64062H3.16406L3.55469 7.23438H6.52344C5.23438 12.4688 5.27344 12.1953 5.23438 12.6641C5.23438 13.4453 6.83594 13.1719 7.5 11.7266L8.28125 8.64062H6.99219L7.38281 7.23438H10.0781L9.72656 8.83594C11.2891 5.86719 14.7266 6.96094 13.7109 10.3203C13.1641 12.3125 13.125 12.3125 13.125 12.625C13.125 13.2109 13.7891 13.4844 14.375 11.9609L15.0781 12.1953C14.6484 13.6406 13.9062 14.2266 12.9688 14.2266Z" fill="#D7D7D7"/>
</svg>
