<svg width="38" height="38" viewBox="0 0 38 38" fill="none" xmlns="http://www.w3.org/2000/svg">
<path d="M27.6949 18.7245L19.3824 15.8982C19.1354 15.8127 18.867 15.8127 18.6176 15.8982L10.3051 18.7245C9.823 18.8884 9.5 19.3396 9.5 19.8479V26.2105C9.5 33.9767 18.1664 37.7482 18.5369 37.9074C18.6841 37.9691 18.8433 38 19 38C19.1567 38 19.3159 37.9691 19.4631 37.905C19.8336 37.7482 28.5 33.9744 28.5 26.2105V19.8479C28.5 19.3396 28.177 18.8884 27.6949 18.7245ZM24.2036 24.7285L19.8502 30.2694C19.5842 30.609 19.19 30.8251 18.7601 30.8679C18.7079 30.8726 18.6556 30.875 18.6034 30.875C18.2281 30.875 17.86 30.742 17.5726 30.495L14.801 28.12C14.136 27.55 14.0576 26.5525 14.63 25.8875C15.2 25.2249 16.1999 25.1465 16.8601 25.7165L18.3777 27.0156L21.7123 22.7739C22.2514 22.0875 23.2465 21.9664 23.9352 22.5079C24.624 23.0446 24.7451 24.0397 24.2036 24.7285Z" fill="#D9A4FC"/>
<path d="M33.25 0H4.75C2.1375 0 0 2.1375 0 4.75V30.0841C0 32.6966 2.1375 34.8341 4.75 34.8341H9.46913C8.70913 33.8675 8.04412 32.8225 7.52162 31.6682H4.75C3.87838 31.6682 3.16588 30.9557 3.16588 30.0841V7.91825H34.8341V30.0841C34.8341 30.9557 34.1216 31.6682 33.25 31.6682H30.4784C29.9559 32.8249 29.2909 33.8699 28.5475 34.8341H33.25C35.8625 34.8341 38 32.6966 38 30.0841V4.75C38 2.1375 35.8625 0 33.25 0Z" fill="#BE63F9"/>
</svg>
