<svg width="38" height="38" viewBox="0 0 38 38" fill="none" xmlns="http://www.w3.org/2000/svg">
<path d="M37.1949 10.8063L28.8824 7.98002C28.6354 7.89452 28.367 7.89452 28.1176 7.98002L19.8051 10.8063C19.323 10.9701 19 11.4238 19 11.932V18.2946C19 26.0609 27.6664 29.8324 28.0369 29.9915C28.1865 30.0533 28.3433 30.0865 28.5 30.0865C28.6567 30.0865 28.8159 30.0556 28.9631 29.9915C29.3336 29.8324 38 26.0585 38 18.2923V11.9296C38 11.4238 37.677 10.9701 37.1949 10.8063ZM33.7036 16.8103L29.3502 22.3511C29.0842 22.6908 28.69 22.9069 28.2601 22.9496C28.2103 22.9544 28.1556 22.9568 28.1057 22.9568C27.7305 22.9568 27.3624 22.8238 27.075 22.5768L24.3034 20.2018C23.6384 19.6318 23.56 18.6343 24.1324 17.9693C24.7024 17.3066 25.7022 17.2283 26.3649 17.7983L27.8825 19.0974L31.217 14.8556C31.7561 14.1693 32.7513 14.0481 33.44 14.5896C34.124 15.1288 34.2451 16.1239 33.7036 16.8103Z" fill="#8CE1EB"/>
<path d="M25.3341 5.58837V4.75C25.3341 2.1375 23.1966 0 20.5841 0H4.75C2.1375 0 0 2.1375 0 4.75V33.25C0 35.8625 2.1375 38 4.75 38H20.5841C23.1966 38 25.3341 35.8625 25.3341 33.25V32.205C24.3366 31.6659 23.2441 30.9534 22.1682 30.0984V31.6659H3.16825V4.75C3.16825 3.87838 3.88075 3.16588 4.75238 3.16588H20.5865C21.4581 3.16588 22.1706 3.87838 22.1706 4.75V6.66663L25.3341 5.58837Z" fill="#26C6DA"/>
</svg>
