<svg width="38" height="38" viewBox="0 0 38 38" fill="none" xmlns="http://www.w3.org/2000/svg">
<path d="M27.6949 2.89037L19.3824 0.064125C19.1354 -0.021375 18.867 -0.021375 18.6176 0.064125L10.3051 2.89037C9.823 3.05425 9.5 3.5055 9.5 4.01612V10.3787C9.5 18.145 18.1664 21.9165 18.5369 22.0756C18.6865 22.1374 18.8433 22.1706 19 22.1706C19.1567 22.1706 19.3159 22.1397 19.4631 22.0756C19.8336 21.9165 28.5 18.1426 28.5 10.3764V4.01612C28.5 3.5055 28.177 3.05425 27.6949 2.89037ZM24.2036 8.89437L19.8502 14.4352C19.5842 14.7749 19.19 14.991 18.7601 15.0337C18.7103 15.0385 18.6556 15.0409 18.6057 15.0409C18.2305 15.0409 17.8624 14.9079 17.575 14.6609L14.8034 12.2859C14.1384 11.7159 14.06 10.7184 14.6324 10.0534C15.2024 9.39075 16.2023 9.31237 16.8625 9.88237L18.3801 11.1815L21.7146 6.93975C22.2537 6.25337 23.2489 6.13225 23.9376 6.67375C24.624 7.21287 24.7451 8.208 24.2036 8.89437Z" fill="#FD907E"/>
<path d="M35.2308 6.33411H31.6682V9.49998H34.8341V26.9159H3.16588V9.49998H6.33175V6.33411H2.76925C1.24925 6.33411 0 7.58336 0 9.10336V30.4784C0 31.9984 1.24925 33.25 2.76925 33.25H14.896C14.7108 34.0432 14.2167 35.3305 12.8986 36.6486C12.673 36.8742 12.6041 37.2162 12.7276 37.5107C12.8488 37.8076 13.1385 38 13.4591 38H24.5432C24.8639 38 25.1536 37.8076 25.2747 37.5107C25.3959 37.2139 25.3294 36.8742 25.1037 36.6486C23.788 35.3329 23.2821 34.0456 23.085 33.25H35.2308C36.7507 33.25 38 31.9984 38 30.4784V9.10336C38 7.58336 36.7507 6.33411 35.2308 6.33411Z" fill="#FF733B"/>
</svg>
