<svg width="41" height="34" viewBox="0 0 41 34" fill="none" xmlns="http://www.w3.org/2000/svg">
<path d="M2.52156 33.36C0.841563 28.56 0.00156271 23.8 0.00156271 19.08C0.00156271 13.64 1.44156 9.27999 4.32156 6C7.20156 2.63999 11.4016 0.959992 16.9216 0.959992V8.51999C12.6816 8.51999 10.5616 11.24 10.5616 16.68V18.48H18.2416V33.36H2.52156ZM25.2016 33.36C23.6016 28.48 22.8016 23.72 22.8016 19.08C22.8016 13.64 24.2016 9.27999 27.0016 6C29.8816 2.63999 34.0816 0.959992 39.6016 0.959992V8.51999C35.4416 8.51999 33.3616 11.24 33.3616 16.68V18.48H40.9216V33.36H25.2016Z" fill="#FF733B"/>
</svg>
